<svg id="レイヤー_1" data-name="レイヤー 1" xmlns="http://www.w3.org/2000/svg" viewBox="0 0 396.85 68.57"><defs><style>.cls-1{fill:#231815;}</style></defs><g id="レイヤー_1-2" data-name="レイヤー 1"><path class="cls-1" d="M122.62,58.59a19,19,0,0,1,2.69-.18,5.46,5.46,0,0,1,2.6.42,1.87,1.87,0,0,1-.24,3.53v0a2.09,2.09,0,0,1,1.67,2.07,2.27,2.27,0,0,1-1,1.85,5.9,5.9,0,0,1-3.52.76,14.21,14.21,0,0,1-2.25-.14Zm2.26,3.15h.45c1,0,1.44-.34,1.44-.88s-.38-.82-1.15-.82a5.19,5.19,0,0,0-.75.05v1.65Zm0,3.63a4,4,0,0,0,.66,0c.76,0,1.4-.3,1.4-1.05s-.66-1-1.52-1h-.54Z"/><path class="cls-1" d="M132.18,67V63.54l-2.69-5.07h2.61l.72,1.92c.24.59.39,1,.58,1.56h0c.16-.52.34-1,.54-1.56l.71-1.92h2.56l-2.79,5V67Z"/><path class="cls-1" d="M141.72,60.38h-2.17v-1.9h6.67v1.9H144V67h-2.29V60.38Z"/><path class="cls-1" d="M149.5,58.48v3.14h2.77V58.48h2.27V67h-2.27V63.61H149.5V67h-2.29v-8.5Z"/><path class="cls-1" d="M161.25,63.54h-3.06V65.1h3.42V67H155.9v-8.5h5.53v1.85h-3.25v1.37h3.06v1.85Z"/><path class="cls-1" d="M166.81,67V63.54l-2.69-5.07h2.61l.72,1.92c.24.59.39,1,.58,1.56h0c.16-.52.34-1,.54-1.56l.71-1.92h2.56l-2.79,5V67Z"/><path class="cls-1" d="M179.9,62.64c0,2.74-1.64,4.48-4.27,4.48a4,4,0,0,1-4.09-4.34,4.17,4.17,0,0,1,4.23-4.44A4,4,0,0,1,179.9,62.64Zm-6,.1c0,1.59.69,2.57,1.79,2.57s1.74-1.07,1.74-2.6-.66-2.57-1.76-2.57S174,61.17,174,62.74Z"/><path class="cls-1" d="M188.18,63.94c0-1-.05-2.11,0-3.43h0c-.27,1.12-.62,2.4-.9,3.33l-.85,3h-1.78l-.72-2.95c-.21-.92-.48-2.18-.67-3.34h0c-.05,1.2-.1,2.46-.14,3.43l-.13,3h-2.1l.52-8.5h3.07l.57,2.28c.23,1,.48,2.08.66,3.11h.05c.24-1,.52-2.23.77-3.13l.63-2.27h3l.43,8.5h-2.22Z"/><path class="cls-1" d="M194.32,58.48V67H192v-8.5Z"/><path class="cls-1" d="M198.28,58.48v4.83c0,1.29.44,2,1.34,2s1.35-.67,1.35-2V58.48h2.29v4.71c0,2.62-1.31,4-3.7,4s-3.56-1.27-3.56-4V58.49h2.28Z"/><path class="cls-1" d="M204.94,58.59a18.9,18.9,0,0,1,2.75-.18,4.76,4.76,0,0,1,2.88.66,2.21,2.21,0,0,1,.85,1.85A2.27,2.27,0,0,1,210,63V63A2.12,2.12,0,0,1,211,64.54c.27.87.54,2.11.71,2.43h-2.34a11.14,11.14,0,0,1-.59-2c-.23-1-.54-1.24-1.25-1.24h-.37V67h-2.26V58.59Zm2.26,3.57h.59c.86,0,1.35-.43,1.35-1.06s-.42-1-1.17-1a4.42,4.42,0,0,0-.77,0Z"/><path class="cls-1" d="M215.14,58.48V67h-2.29v-8.5Z"/><path class="cls-1" d="M218.94,64.7a5.1,5.1,0,0,0,2.21.53c.78,0,1.16-.26,1.16-.69s-.38-.66-1.34-1c-1.44-.5-2.39-1.3-2.39-2.56,0-1.5,1.26-2.66,3.41-2.66a5.56,5.56,0,0,1,2.31.44l-.48,1.82a4.56,4.56,0,0,0-1.86-.4c-.69,0-1.07.25-1.07.63s.45.61,1.53,1c1.53.56,2.22,1.37,2.22,2.56,0,1.46-1.15,2.71-3.64,2.71a5.92,5.92,0,0,1-2.5-.52Z"/><path class="cls-1" d="M228.2,58.48v3.14H231V58.48h2.27V67H231V63.61H228.2V67h-2.29v-8.5Z"/><path class="cls-1" d="M237.23,58.48V67h-2.29v-8.5Z"/><path class="cls-1" d="M246.12,63.94c0-1-.05-2.11,0-3.43h0c-.27,1.12-.62,2.4-.9,3.33l-.85,3h-1.78l-.72-2.95c-.21-.92-.48-2.18-.67-3.34h0c0,1.2-.1,2.46-.14,3.43l-.13,3h-2.1l.52-8.5h3.07l.57,2.28c.23,1,.48,2.08.66,3.11h0c.24-1,.52-2.23.77-3.13l.63-2.27h3l.43,8.5h-2.22Z"/><path class="cls-1" d="M250,58.59a19,19,0,0,1,2.69-.18,5.46,5.46,0,0,1,2.6.42,1.87,1.87,0,0,1-.24,3.53v0a2.09,2.09,0,0,1,1.67,2.07,2.27,2.27,0,0,1-.95,1.85,5.88,5.88,0,0,1-3.52.76,14.21,14.21,0,0,1-2.25-.14Zm2.26,3.15h.45c1,0,1.44-.34,1.44-.88S253.74,60,253,60a5.19,5.19,0,0,0-.75.05v1.65Zm0,3.63a4,4,0,0,0,.66,0c.76,0,1.4-.3,1.4-1.05s-.66-1-1.52-1h-.54Z"/><path class="cls-1" d="M260.25,58.48v4.83c0,1.29.44,2,1.34,2s1.35-.67,1.35-2V58.48h2.29v4.71c0,2.62-1.31,4-3.7,4s-3.56-1.27-3.56-4V58.49h2.28Z"/><path class="cls-1" d="M266.9,67v-8.5h2.69l1.35,2.61a24.11,24.11,0,0,1,1.34,3h0a31.18,31.18,0,0,1-.18-3.58v-2h2.08V67h-2.4l-1.44-2.82a30.23,30.23,0,0,1-1.44-3.08h0c.05,1.15.08,2.43.08,3.81V67H266.9Z"/><path class="cls-1" d="M284.58,48.05c5.12,0,5.86-1.06,5.86-7.28V21.61c0-6.22-.74-7.28-5.86-7.28v-1.8h31.79l.49,8.77h-1.79l-.31-1.24c-.86-3.3-1.48-4.73-7.16-4.73h-9.44V28.7h3.39c6.17,0,7.16-.81,7.16-6h1.79V37.47h-1.79c0-5.22-1-6-7.16-6h-3.39v8.27c0,6.22.8,7.28,5.93,7.28h5.55c5.68,0,6.36-1.43,7.16-4.73l.31-1.24h1.79l-.49,8.77H284.59v-1.8Z"/><path class="cls-1" d="M364.57,19.81,354.51,50.23h-1.3l-7.82-23.56-7.7,23.56h-1.3L326.33,19.81c-1.37-4.29-2.24-5.47-7.39-5.47v-1.8h19.62v1.8c-5.21,0-6.08,1.12-4.9,4.73l5.65,16.8,7.63-23.33h1.37l7.82,23.4,5.71-16.87c1.06-3.36.06-4.73-4.34-4.73v-1.8H372v1.8C366.81,14.34,365.94,15.58,364.57,19.81Z"/><path class="cls-1" d="M372.93,50.24h-1.81V36.78H373c1.18,6.54,6.35,10.7,11.46,10.7,3.61,0,6.23-2,6.23-6,0-2.2-1.68-4.71-4.61-6.18l-5.92-3.06c-5.3-2.63-8.47-5.5-8.47-11.56,0-5,4.8-9.17,10.84-9.17a11.73,11.73,0,0,1,7.6,2.51,5.19,5.19,0,0,0,1.81-2.81h1.74V24.61h-1.81c-.44-4.89-2.43-10.46-9-10.46A4.89,4.89,0,0,0,377.84,19c0,1.83,1.68,4.59,5,6.24l6,3c4.42,2.26,8,6,8,10.82,0,6.66-6,11.13-12.4,11.13-4.73,0-7.72-2.45-9.72-2.87A5.23,5.23,0,0,0,372.93,50.24Z"/><path class="cls-1" d="M140.14,12.52H119.27v1.8c5.17,0,5.92,1.06,5.92,7.28V40.76c0,4.86-.26,7-3.13,7.08-2.67-.06-3.58-2.11-5-5.27l-13.4-31.1h-1.29L89.08,42.57C87.18,47,85.76,48,81.52,48v1.8H96.39V48c-5.1,0-6-1.37-4.61-4.73L94.3,37.4h12.29l2.58,5.91c1.41,3.3.8,4.73-4.61,4.73v1.8H139V48c-5.17,0-6-1.06-6-7.28V33.48h7.16c7.73,0,12.58-4.66,12.58-10.45S147.87,12.52,140.14,12.52ZM95.53,34.6l5-11.69,4.92,11.69Zm40.87-3.92H133V15.32h3.43c5.42,0,8,3.48,8,7.71S141.82,30.68,136.4,30.68Z"/><path class="cls-1" d="M211,12.52v1.8c5.13,0,5.94,1.06,5.94,7.28V37.27L196.27,12.52H183.9v1.8c5.13,0,5.87,1.06,5.87,7.28V40.76c0,4.91-.32,7-3.19,7.09s-3.65-2.09-5-5.29l-13.4-31.1h-1.29l-13.34,31.1C151.62,47,150.2,48,146,48v1.8h14.87V48c-5.1,0-6-1.37-4.61-4.73l2.52-5.91H171l2.58,5.91C175,46.6,174.41,48,169,48v1.8h29.48V48c-5.13,0-5.94-1.06-5.94-7.28V20.17l25.6,30.72h1.55V21.6c0-6.22.74-7.28,5.94-7.28v-1.8ZM160,34.6l5-11.69,4.92,11.69Z"/><path class="cls-1" d="M17.45,25.81h-.81l-.14-.56c-.36-1.48-.67-2.12-3.24-2.12H10.47v11.4c0,2.79.36,3.26,2.68,3.26v.81H4.33v-.81c2.32,0,2.65-.47,2.65-3.26V23.13H4.19c-2.54,0-2.85.64-3.21,2.12l-.14.56H0l.25-3.93h17Z"/><path class="cls-1" d="M24.91,34.53c0,2.79.36,3.26,2.68,3.26v.81H18.77v-.81c2.32,0,2.65-.47,2.65-3.26V25.94c0-2.79-.34-3.26-2.65-3.26v-.81h8.82v.81c-2.32,0-2.68.47-2.68,3.26v3.15h8.24V25.94c0-2.79-.33-3.26-2.68-3.26v-.81h8.85v.81c-2.32,0-2.68.47-2.68,3.26v8.59c0,2.79.36,3.26,2.68,3.26v.81H30.47v-.81c2.35,0,2.68-.47,2.68-3.26V30.35H24.91Z"/><path class="cls-1" d="M41.08,37.79c2.32,0,2.65-.47,2.65-3.26V25.94c0-2.79-.34-3.26-2.65-3.26v-.81H55.46l.22,3.93h-.81l-.14-.56c-.39-1.48-.67-2.12-3.24-2.12H47.22v6h1.54c2.79,0,3.24-.36,3.24-2.68h.81V33H52c0-2.34-.45-2.68-3.24-2.68H47.22v3.71c0,2.79.36,3.26,2.68,3.26h2.51c2.57,0,2.88-.64,3.24-2.12l.14-.56h.81l-.22,3.93H41.08Z"/><path class="cls-1" d="M274.36,12.13c0-8.31-1.08-9.72-8-9.72V0h19.72V2.41c-7,0-8,1.41-8,9.72V51.26H276l-34.28-41v27.5c0,8.31,1.08,9.72,8,9.72v2.41H230.09V47.44C237,47.44,238,46,238,37.72V12.13c0-8.31-1-9.72-7.91-9.72V0h16.64l27.63,33.06V12.13Z"/><path class="cls-1" d="M59.35,0V2.41c7,0,9.22,1.41,9.22,9.72V56c0,5.83-3.14,8.87-7.47,8.87a6.82,6.82,0,0,1-3.77-1,6.39,6.39,0,1,0-9.73-4.74c.49,5.61,7.26,9.52,13.75,9.52,10.11,0,17.62-5,17.62-17.15V12.13c0-8.31,2.17-9.72,9-9.72V0Z"/></g></svg>