<svg xmlns="http://www.w3.org/2000/svg" xmlns:xlink="http://www.w3.org/1999/xlink" version="1.1" x="0px" y="0px" viewBox="0 0 32 32" style="enable-background:new 0 0 32 32;" xml:space="preserve"><g><circle cx="16" cy="16" r="8"/><path d="M16,6c0.55,0,1-0.45,1-1V3c0-0.55-0.45-1-1-1s-1,0.45-1,1v2C15,5.55,15.45,6,16,6z"/><path d="M16,26c-0.55,0-1,0.45-1,1v2c0,0.55,0.45,1,1,1s1-0.45,1-1v-2C17,26.45,16.55,26,16,26z"/><path d="M29,15h-2c-0.55,0-1,0.45-1,1s0.45,1,1,1h2c0.55,0,1-0.45,1-1S29.55,15,29,15z"/><path d="M5,15H3c-0.55,0-1,0.45-1,1s0.45,1,1,1h2c0.55,0,1-0.45,1-1S5.55,15,5,15z"/><path d="M24.49,23.07c-0.39-0.39-1.02-0.39-1.41,0s-0.39,1.02,0,1.41l1.41,1.41c0.2,0.2,0.45,0.29,0.71,0.29s0.51-0.1,0.71-0.29   c0.39-0.39,0.39-1.02,0-1.41L24.49,23.07z"/><path d="M7.51,8.93c0.2,0.2,0.45,0.29,0.71,0.29s0.51-0.1,0.71-0.29c0.39-0.39,0.39-1.02,0-1.41L7.51,6.1   c-0.39-0.39-1.02-0.39-1.41,0s-0.39,1.02,0,1.41L7.51,8.93z"/><path d="M7.51,23.07L6.1,24.49c-0.39,0.39-0.39,1.02,0,1.41c0.2,0.2,0.45,0.29,0.71,0.29s0.51-0.1,0.71-0.29l1.41-1.41   c0.39-0.39,0.39-1.02,0-1.41S7.91,22.68,7.51,23.07z"/><path d="M23.78,9.22c0.26,0,0.51-0.1,0.71-0.29l1.41-1.41c0.39-0.39,0.39-1.02,0-1.41s-1.02-0.39-1.41,0l-1.41,1.41   c-0.39,0.39-0.39,1.02,0,1.41C23.27,9.12,23.52,9.22,23.78,9.22z"/></g><text x="0" y="47" fill="#000000" font-size="5px" font-weight="bold" font-family="'Helvetica Neue', Helvetica, Arial-Unicode, Arial, Sans-serif">Created by Dewanata Visuals</text><text x="0" y="52" fill="#000000" font-size="5px" font-weight="bold" font-family="'Helvetica Neue', Helvetica, Arial-Unicode, Arial, Sans-serif">from the Noun Project</text></svg>